# xmcd
#
# Track frame offsets:
#	150
#	9510
#	13638
#	20043
#	23795
#	31934
#	36280
#	40977
#	48789
#	55633
#	65980
#	73372
#	80194
#	86632
#	92441
#	110854
#	123025
#	135907
#	148364
#	171320
#	192217
#	202368
#	217407
#	232670
#	255421
#	283557
#	307605
#
# Disc length: 4324 seconds
#
# Revision: 0
# Processed by: cddbd v1.5.2PL0 Copyright (c) Steve Scherf et al.
# Submitted via: EasyCDDAExtractor 12.0.1.1
#
DISCID=8510e21b
DTITLE=Black Flag - The First Four Years(1983),In My Head(1985)
DYEAR=1900
DGENRE=
TTITLE0=Nervous Breakdown
TTITLE1=Fix Me
TTITLE2=I've had it
TTITLE3=Wasted
TTITLE4=Jelaous Again
TTITLE5=Revenge
TTITLE6=White Minority
TTITLE7=No Values
TTITLE8=Clocked In
TTITLE9=Six Pack
TTITLE10=I've heard it before
TTITLE11=American Waste
TTITLE12=Machine
TTITLE13=Louie Louie
TTITLE14=Damaged I
TTITLE15=Paralyzed
TTITLE16=The Crazy Girl
TTITLE17=Black Love
TTITLE18=White Hot
TTITLE19=In My Head
TTITLE20=Out of This World
TTITLE21=I can see you
TTITLE22=Drinking and Driving
TTITLE23=Retired at 21
TTITLE24=Society's Tease
TTITLE25=It's All Up To you
TTITLE26=You let me down
EXTD=
EXTT0=
EXTT1=
EXTT2=
EXTT3=
EXTT4=
EXTT5=
EXTT6=
EXTT7=
EXTT8=
EXTT9=
EXTT10=
EXTT11=
EXTT12=
EXTT13=
EXTT14=
EXTT15=
EXTT16=
EXTT17=
EXTT18=
EXTT19=
EXTT20=
EXTT21=
EXTT22=
EXTT23=
EXTT24=
EXTT25=
EXTT26=
PLAYORDER=
